<?xml version="1.0" encoding="UTF-8"?>
<svg id="_레이어_2" data-name="레이어 2" xmlns="http://www.w3.org/2000/svg" viewBox="0 0 1000 291.05">
  <defs>
    <style>
      .cls-1 {
        fill: #fff;
      }

      .cls-2 {
        fill: #1f2328;
      }
    </style>
  </defs>
  <g id="JT_Logo_Vertical">
    <g>
      <g>
        <path class="cls-2" d="M364.34,172.14c-4.68,0-9.21-.87-13.45-2.51l-.53-.19v-20.68l1.4,1.01c3.33,2.46,7.23,3.71,11.62,3.71,9.93,0,14.75-7.67,14.75-23.43v-62.1h21.16v62.77c0,13.35-3.09,23.67-9.16,30.76-6.12,7.09-14.75,10.7-25.7,10.7l-.1-.05Z"/>
        <path class="cls-2" d="M469.34,160.95h-.29c-4.63,7.28-13.02,10.22-21.6,10.22-12.73,0-24.25-7.28-24.25-21.02,0-23.53,28.59-23.96,46.09-23.96,0-7.42-6.17-12.2-13.45-12.2-6.85,0-12.63,3.09-17.11,8.15l-11.23-11.47c7.71-7.28,18.9-10.94,29.99-10.94,24.54,0,31.1,12.49,31.1,35.19v34.62h-19.33v-8.53l.1-.05ZM464.18,139.64c-6.46,0-20.73.58-20.73,9.79,0,5.06,5.3,7.42,9.93,7.42,8.24,0,15.96-4.34,15.96-12.73v-4.48h-5.21.05Z"/>
        <path class="cls-2" d="M515.87,101.37h20.2v9.26h.29c2.8-5.3,9.69-10.94,19.91-10.94,21.31,0,25.21,14.03,25.21,32.2v37.56h-21.02v-33.36c0-7.86-.14-17.93-10.94-17.93s-12.63,8.53-12.63,17.36v33.89h-21.02v-68.12.1Z"/>
        <path class="cls-2" d="M644.78,180.58c-5.59,14.42-8.82,22.56-28.88,22.56-5.3,0-10.65-.82-15.72-2.51l2.8-17.26c3.23,1.4,6.32,2.12,9.79,2.12,9.55,0,11.09-4.05,14.03-11.47l1.54-3.91-29.84-68.65h22.71l17.5,44.98h.29l14.99-44.98h21.6l-30.81,79.16v-.05Z"/>
        <path class="cls-2" d="M746.12,118.19h-18.51v22.71c0,7.28.82,12.63,9.93,12.63,2.22,0,6.75-.29,8.53-1.98v17.5c-4.63,1.69-9.79,2.12-14.7,2.12-14.03,0-24.78-5.74-24.78-20.59v-32.35h-13.45v-16.83h13.45v-20.2h21.02v20.2h18.51v16.83-.05Z"/>
        <path class="cls-2" d="M771.53,101.37h21.02v10.94h.29c4.48-8.24,10.37-12.63,19.62-12.63,2.36,0,5.06.14,6.99.72v19.19c-2.94-.82-5.88-1.4-8.97-1.4-15.96,0-17.93,9.26-17.93,22.85v28.44h-21.02v-68.12h0Z"/>
        <path class="cls-2" d="M904.83,157.72c-6.75,8.53-17.79,13.45-28.73,13.45-21.02,0-37.85-14.03-37.85-35.72s16.83-35.72,37.85-35.72c19.62,0,31.96,14.03,31.96,35.72v6.6h-48.74c1.69,8,7.71,13.16,15.81,13.16,6.85,0,11.47-3.52,14.99-8.24l14.7,10.8v-.05ZM887.04,127.74c.14-6.99-5.3-12.87-12.87-12.87-9.26,0-14.27,6.32-14.85,12.87h27.72Z"/>
        <path class="cls-2" d="M996.77,157.72c-6.75,8.53-17.79,13.45-28.73,13.45-21.02,0-37.85-14.03-37.85-35.72s16.83-35.72,37.85-35.72c19.62,0,31.96,14.03,31.96,35.72v6.6h-48.74c1.69,8,7.71,13.16,15.81,13.16,6.85,0,11.47-3.52,14.99-8.24l14.7,10.8v-.05ZM978.98,127.74c.14-6.99-5.3-12.87-12.87-12.87-9.26,0-14.27,6.32-14.85,12.87h27.77-.05Z"/>
      </g>
      <g>
        <circle class="cls-2" cx="145.52" cy="145.52" r="145.5" transform="translate(-60.28 145.52) rotate(-45)"/>
        <path class="cls-1" d="M120.54,215.24c-5.11,0-10.08-.92-14.7-2.75l-.58-.24v-22.61l1.49,1.11c3.66,2.7,7.91,4.05,12.68,4.05,10.85,0,16.1-8.39,16.1-25.6v-61.52h23.09v62.29c0,14.56-3.37,25.84-10.03,33.55-6.7,7.76-16.1,11.67-28.06,11.67v.05ZM202.21,93.89h-14.75v-14.8h-14.75v14.8h-14.8v14.75h14.8v14.75h14.75v-14.75h14.75v-14.75h0Z"/>
      </g>
      <g>
        <path class="cls-2" d="M362.06,224.85c4.39,0,12.34,1.25,12.34,9.78,0,7.13-4.19,10.21-13.3,10.21h-4.68v14.12h-6.07v-34.11h11.7ZM360.38,239.64c3.57,0,7.66-.39,7.66-4.82,0-3.23-2.36-4.77-7.09-4.77h-4.53v9.59h3.95Z"/>
        <path class="cls-2" d="M394.32,235.59v5.59c-1.11-.29-1.93-.44-2.8-.44-4.38,0-6.21,3.08-6.21,6.17v12.05h-5.78v-23.13h5.78v3.66h.1c1.25-2.65,3.8-4.24,6.84-4.24.87,0,1.3.14,2.07.33Z"/>
        <path class="cls-2" d="M421.65,247.4c0,7.23-5.49,12.14-12.58,12.14s-12.58-4.92-12.58-12.14,5.54-12.14,12.58-12.14,12.58,4.92,12.58,12.14ZM409.07,254.34c4.05,0,6.8-3.09,6.8-6.94s-2.9-6.94-6.85-6.94-6.75,2.99-6.75,6.94,2.9,6.94,6.79,6.94Z"/>
        <path class="cls-2" d="M441.66,222.3l-.39,4.92c-.97-.24-1.64-.34-2.41-.34-2.55,0-3.71,1.3-3.71,4.58v4.39h5.35v4.91h-5.35v18.22h-5.78v-18.22h-4.77v-4.91h4.77v-3.62c0-7.57,2.65-10.26,8.67-10.26.82,0,2.5.09,3.62.34Z"/>
        <path class="cls-2" d="M466.77,247.79v1.64h-17.64c.39,3.32,2.89,5.49,6.22,5.49,2.6,0,4.58-1.11,6.21-3.13l4.14,3.13c-2.5,3.08-5.83,4.63-9.78,4.63-7.08,0-12.58-4.92-12.58-12.14s5.49-12.14,12.58-12.14,10.84,5.54,10.84,12.53ZM460.99,245.09c-.05-3.61-2.5-5.49-5.93-5.49s-5.49,2.22-5.93,5.49h11.86Z"/>
        <path class="cls-2" d="M488.61,238.78l-3.86,3.47c-1.16-1.59-2.6-2.36-4.53-2.36s-3.38.97-3.38,2.46c0,1.88,2.6,2.22,5.49,2.89,3.57.82,6.99,2.12,6.99,6.89s-4.29,7.42-10.02,7.42c-3.56,0-6.6-.92-8.96-3.57l3.86-3.61c1.97,2.17,3.52,2.84,5.49,2.84,2.12,0,3.86-1.06,3.86-2.65,0-2.22-2.8-2.6-5.73-3.28-3.13-.73-6.75-1.83-6.75-6.55,0-5.64,5.3-7.47,9.25-7.47,3.62,0,6.6,1.25,8.29,3.52Z"/>
        <path class="cls-2" d="M510.26,238.78l-3.86,3.47c-1.16-1.59-2.6-2.36-4.53-2.36s-3.38.97-3.38,2.46c0,1.88,2.6,2.22,5.49,2.89,3.57.82,6.99,2.12,6.99,6.89s-4.29,7.42-10.02,7.42c-3.56,0-6.6-.92-8.96-3.57l3.86-3.61c1.97,2.17,3.52,2.84,5.49,2.84,2.12,0,3.86-1.06,3.86-2.65,0-2.22-2.8-2.6-5.73-3.28-3.13-.73-6.75-1.83-6.75-6.55,0-5.64,5.3-7.47,9.25-7.47,3.62,0,6.6,1.25,8.29,3.52Z"/>
        <path class="cls-2" d="M522.41,227.98c0,2.07-1.69,3.47-3.76,3.47s-3.66-1.59-3.66-3.47,1.59-3.47,3.66-3.47,3.76,1.5,3.76,3.47ZM521.6,235.84v23.13h-5.79v-23.13h5.79Z"/>
        <path class="cls-2" d="M552.49,247.4c0,7.23-5.49,12.14-12.58,12.14s-12.58-4.92-12.58-12.14,5.54-12.14,12.58-12.14,12.58,4.92,12.58,12.14ZM539.91,254.34c4.05,0,6.8-3.09,6.8-6.94s-2.9-6.94-6.85-6.94-6.75,2.99-6.75,6.94,2.89,6.94,6.79,6.94Z"/>
        <path class="cls-2" d="M579.25,244.17v14.79h-5.79v-12c0-4.63-1.49-6.51-4.24-6.51-3.71,0-5.3,2.7-5.3,5.78v12.72h-5.78v-23.13h5.49v3.71h.09c1.4-3.04,4.05-4.29,7.09-4.29,6.89,0,8.43,5.35,8.43,8.91Z"/>
        <path class="cls-2" d="M605.71,245.14v13.83h-5.21v-3.18h-.14c-1.64,2.6-4.34,3.76-7.42,3.76-4.77,0-8.43-2.7-8.43-6.94,0-5.35,4.29-8.05,14.22-8.05h1.78v-.67c0-2.7-2.12-4.29-5.3-4.29-2.41,0-4.58.96-6.17,2.41l-3.03-3.04c2.07-2.12,5.3-3.71,9.83-3.71,7.9,0,9.88,4.43,9.88,9.88ZM594.39,255.21c3.95,0,5.79-2.22,5.79-5.16v-1.45h-1.69c-5.1,0-8.19,1.11-8.19,3.56,0,1.98,1.93,3.04,4.09,3.04Z"/>
        <path class="cls-2" d="M618.06,222.54v36.43h-5.79v-36.43h5.79Z"/>
        <path class="cls-2" d="M653.59,224.85c8.82,0,17.2,5.59,17.2,17.06,0,12.1-10.5,17.06-17.92,17.06h-12.86v-34.11h13.59ZM650.84,253.47c7.28,0,13.59-3.28,13.59-11.56s-5.35-11.56-12.77-11.56h-5.59v23.13h4.77Z"/>
        <path class="cls-2" d="M698.56,247.79v1.64h-17.64c.39,3.32,2.9,5.49,6.22,5.49,2.6,0,4.58-1.11,6.21-3.13l4.14,3.13c-2.5,3.08-5.83,4.63-9.78,4.63-7.08,0-12.58-4.92-12.58-12.14s5.49-12.14,12.58-12.14,10.84,5.54,10.84,12.53ZM692.78,245.09c-.05-3.61-2.5-5.49-5.93-5.49s-5.49,2.22-5.93,5.49h11.86Z"/>
        <path class="cls-2" d="M723.88,239.55c1.69-2.94,4.14-4.29,7.61-4.29,5.68,0,8.33,3.71,8.33,10.07v13.63h-5.78v-13.25c0-3.42-1.4-5.25-4.29-5.25-3.04,0-4.96,2.22-4.96,5.97v12.53h-5.78v-13.93c0-2.31-.92-4.58-3.95-4.58-3.57,0-5.3,2.55-5.3,5.88v12.62h-5.78v-23.13h5.49v3.61h.1c1.25-2.6,3.71-4.19,7.08-4.19,3.57,0,6.03,1.39,7.23,4.29Z"/>
        <path class="cls-2" d="M770.4,247.4c0,7.23-5.49,12.14-12.58,12.14s-12.58-4.92-12.58-12.14,5.54-12.14,12.58-12.14,12.58,4.92,12.58,12.14ZM757.82,254.34c4.05,0,6.8-3.09,6.8-6.94s-2.9-6.94-6.85-6.94-6.75,2.99-6.75,6.94,2.89,6.94,6.79,6.94Z"/>
        <path class="cls-2" d="M819.23,229.38l-4.72,3.47c-1.97-2.12-4.19-3.37-7.18-3.37-6.98,0-11.7,5.4-11.7,12.19s4.53,12.67,11.7,12.67c3.23,0,5.73-1.69,7.66-4.15l5.01,3.57c-2.94,4.14-7.71,6.07-12.72,6.07-10.5,0-18.02-7.18-18.02-17.78s7.13-18.07,18.02-18.07c4.87,0,8.72,1.73,11.95,5.4Z"/>
        <path class="cls-2" d="M847.82,247.4c0,7.23-5.49,12.14-12.58,12.14s-12.58-4.92-12.58-12.14,5.54-12.14,12.58-12.14,12.58,4.92,12.58,12.14ZM835.24,254.34c4.05,0,6.8-3.09,6.8-6.94s-2.9-6.94-6.85-6.94-6.75,2.99-6.75,6.94,2.9,6.94,6.79,6.94Z"/>
        <path class="cls-2" d="M869.67,238.78l-3.86,3.47c-1.16-1.59-2.6-2.36-4.53-2.36s-3.37.97-3.37,2.46c0,1.88,2.6,2.22,5.49,2.89,3.57.82,6.99,2.12,6.99,6.89s-4.29,7.42-10.02,7.42c-3.56,0-6.6-.92-8.96-3.57l3.86-3.61c1.97,2.17,3.52,2.84,5.49,2.84,2.12,0,3.86-1.06,3.86-2.65,0-2.22-2.8-2.6-5.73-3.28-3.13-.73-6.75-1.83-6.75-6.55,0-5.64,5.3-7.47,9.25-7.47,3.62,0,6.6,1.25,8.29,3.52Z"/>
        <path class="cls-2" d="M894.78,239.55c1.69-2.94,4.14-4.29,7.61-4.29,5.68,0,8.33,3.71,8.33,10.07v13.63h-5.78v-13.25c0-3.42-1.4-5.25-4.29-5.25-3.04,0-4.96,2.22-4.96,5.97v12.53h-5.78v-13.93c0-2.31-.92-4.58-3.95-4.58-3.57,0-5.3,2.55-5.3,5.88v12.62h-5.78v-23.13h5.49v3.61h.1c1.25-2.6,3.71-4.19,7.08-4.19,3.57,0,6.03,1.39,7.23,4.29Z"/>
        <path class="cls-2" d="M939.57,247.79v1.64h-17.64c.39,3.32,2.89,5.49,6.22,5.49,2.6,0,4.58-1.11,6.21-3.13l4.14,3.13c-2.5,3.08-5.83,4.63-9.78,4.63-7.08,0-12.58-4.92-12.58-12.14s5.49-12.14,12.58-12.14,10.84,5.54,10.84,12.53ZM933.79,245.09c-.05-3.61-2.5-5.49-5.93-5.49s-5.49,2.22-5.93,5.49h11.86Z"/>
        <path class="cls-2" d="M953.07,229.14v6.7h6.36v4.91h-6.36v10.26c0,2.46.97,3.62,3.23,3.62,1.45,0,2.65-.34,3.13-.73v4.87c-1.11.53-3.28.77-4.58.77-5.45,0-7.57-2.12-7.57-7.95v-10.84h-4.77v-4.91h4.77v-6.7h5.78Z"/>
        <path class="cls-2" d="M970.96,227.98c0,2.07-1.69,3.47-3.76,3.47s-3.66-1.59-3.66-3.47,1.59-3.47,3.66-3.47,3.76,1.5,3.76,3.47ZM970.14,235.84v23.13h-5.79v-23.13h5.79Z"/>
        <path class="cls-2" d="M996.84,238.78l-4,4c-1.16-1.21-2.65-2.31-4.39-2.31-4.19,0-6.79,3.23-6.79,6.94,0,4,2.9,6.94,6.79,6.94,1.74,0,3.42-.77,4.48-2.17l3.86,4.14c-1.93,1.88-5.35,3.23-8.34,3.23-7.08,0-12.58-4.96-12.58-12.14,0-6.79,5.11-12.14,12.58-12.14,3.14,0,6.27,1.15,8.39,3.52Z"/>
      </g>
    </g>
  </g>
</svg>